<?xml version="1.0" encoding="utf-8"?>
<svg version="1.1" xmlns:xlink="http://www.w3.org/1999/xlink" width="33px" height="41px" xmlns="http://www.w3.org/2000/svg">
  <g transform="matrix(1 0 0 1 -26 -378 )">
    <path d="M 9.166666666666668 20  L 30.25 20  C 31.013888888888893 20.5  31.66319444444445 20.749131944444443  32.197916666666664 21.247395833333336  C 32.73263888888889 21.74565972222222  33 22.350694444444443  33 23.0625  L 33 38.4375  C 33 39.14930555555556  32.73263888888889 39.75434027777777  32.197916666666664 40.25260416666667  C 31.66319444444445 40.75086805555556  31.013888888888893 41  30.25 41  L 2.75 41  C 1.9861111111111114 41  1.3368055555555558 40.75086805555556  0.8020833333333334 40.25260416666667  C 0.2673611111111111 39.75434027777777  0 39.14930555555556  0 38.4375  L 0 23.0625  C 0 22.350694444444443  0.2673611111111111 21.74565972222222  0.8020833333333334 21.247395833333336  C 1.3368055555555558 20.749131944444443  1.9861111111111114 20.5  2.75 20.5  L 3.6666666666666665 20.5  L 3.6666666666666665 11.958333333333332  C 3.6666666666666665 8.666232638888886  4.922309027777779 5.850151909722217  7.43359375 3.5100911458333317  C 9.944878472222223 1.1700303819444469  12.96701388888889 0  16.5 0  C 20.032986111111114 0  23.05512152777778 1.1700303819444469  25.56640625 3.5100911458333317  C 28.077690972222225 5.850151909722217  29.333333333333332 8.666232638888886  29.333333333333332 11.958333333333332  C 29.333333333333332 12.421006944444443  29.15190972222222 12.821397569444443  28.7890625 13.159505208333332  C 28.42621527777778 13.497612847222216  27.99652777777778 13.666666666666668  27.5 13.666666666666668  L 25.666666666666668 13.666666666666668  C 25.17013888888889 13.666666666666668  24.740451388888893 13.497612847222216  24.377604166666668 13.159505208333332  C 24.014756944444446 12.821397569444443  23.833333333333332 12.421006944444443  23.833333333333332 11.958333333333332  C 23.833333333333332 10.07204861111111  23.1171875 8.461588541666668  21.684895833333336 7.126953125  C 20.252604166666668 5.792317708333332  18.524305555555557 5.125  16.5 5.125  C 14.475694444444446 5.125  12.747395833333332 5.792317708333332  11.315104166666666 7.126953125  C 9.8828125 8.461588541666668  9.166666666666668 10.07204861111111  9.166666666666668 11.958333333333332  L 9.166666666666668 20  Z " fill-rule="nonzero" fill="#000000" stroke="none" transform="matrix(1 0 0 1 26 378 )" />
  </g>
</svg>