<?xml version="1.0" encoding="utf-8"?>
<svg version="1.1" xmlns:xlink="http://www.w3.org/1999/xlink" width="33px" height="40px" xmlns="http://www.w3.org/2000/svg">
  <g transform="matrix(1 0 0 1 -27 -288 )">
    <path d="M 32.780859375 28.91927083333333  C 32.926953125 30.230034722222218  33 31.62326388888889  33 33.098958333333336  C 33 34.99131944444444  32.462890625 36.614583333333336  31.388671875 37.96875  C 30.314453125000004 39.322916666666664  29.021093750000002 40  27.50859375 40  L 5.49140625 40  C 3.97890625 40  2.6855468750000004 39.322916666666664  1.6113281250000002 37.96875  C 0.5371093750000001 36.614583333333336  0 34.99131944444444  0 33.098958333333336  C 0 31.62326388888889  0.07304687500000016 30.230034722222218  0.2191406250000002 28.91927083333333  C 0.36523437500000017 27.608506944444436  0.6359375000000002 26.2890625  1.0312500000000002 24.9609375  C 1.4265625000000004 23.6328125  1.9292968750000004 22.49565972222222  2.539453125 21.54947916666667  C 3.1496093750000007 20.603298611111107  3.957421875 19.830729166666664  4.962890625 19.231770833333336  C 5.9683593749999995 18.6328125  7.124218750000001 18.333333333333336  8.430468750000001 18.333333333333336  C 10.682031250000001 20.555555555555554  13.371875000000003 21.66666666666667  16.5 21.66666666666667  C 19.628125000000004 21.66666666666667  22.317968750000002 20.555555555555554  24.56953125 18.333333333333336  C 25.875781250000003 18.333333333333336  27.031640624999998 18.6328125  28.037109375 19.231770833333336  C 29.042578125000002 19.830729166666664  29.850390625000003 20.603298611111107  30.460546875000002 21.54947916666667  C 31.070703125000005 22.49565972222222  31.5734375 23.6328125  31.96875 24.9609375  C 32.3640625 26.2890625  32.634765625 27.608506944444436  32.780859375 28.91927083333333  Z M 23.499609375000002 2.9296875  C 25.433203125000002 4.8828125  26.400000000000002 7.239583333333335  26.400000000000002 10  C 26.400000000000002 12.760416666666664  25.433203125000002 15.1171875  23.499609375000002 17.0703125  C 21.566015625000002 19.0234375  19.232812499999998 20  16.5 20  C 13.7671875 20  11.433984375 19.0234375  9.500390625 17.0703125  C 7.5667968750000005 15.1171875  6.6000000000000005 12.760416666666664  6.6000000000000005 10  C 6.6000000000000005 7.239583333333335  7.5667968750000005 4.8828125  9.500390625 2.9296875  C 11.433984375 0.9765625  13.7671875 0  16.5 0  C 19.232812499999998 0  21.566015625000002 0.9765625  23.499609375000002 2.9296875  Z " fill-rule="nonzero" fill="#1890ff" stroke="none" transform="matrix(1 0 0 1 27 288 )" />
  </g>
</svg>