<?xml version="1.0" encoding="utf-8"?>
<svg version="1.1" xmlns:xlink="http://www.w3.org/1999/xlink" width="39px" height="49px" xmlns="http://www.w3.org/2000/svg">
  <g transform="matrix(1 0 0 1 -469 -495 )">
    <path d="M 10.833333333333334 24  L 35.75 24  C 36.65277777777778 24.5  37.42013888888889 24.797743055555554  38.052083333333336 25.39322916666667  C 38.68402777777778 25.988715277777775  39 26.711805555555554  39 27.5625  L 39 45.9375  C 39 46.78819444444445  38.68402777777778 47.51128472222222  38.052083333333336 48.106770833333336  C 37.42013888888889 48.70225694444445  36.65277777777778 49  35.75 49  L 3.25 49  C 2.3472222222222228 49  1.5798611111111114 48.70225694444445  0.9479166666666666 48.106770833333336  C 0.3159722222222222 47.51128472222222  0 46.78819444444445  0 45.9375  L 0 27.5625  C 0 26.711805555555554  0.3159722222222222 25.988715277777775  0.9479166666666666 25.39322916666667  C 1.5798611111111114 24.797743055555554  2.3472222222222228 24.5  3.25 24.5  L 5 24.5  L 5 14.291666666666664  C 4.333333333333333 10.357204861111107  5.817274305555556 6.9916449652777715  8.78515625 4.194986979166665  C 11.753038194444445 1.3983289930555585  15.324652777777779 0  19.5 0  C 23.675347222222225 0  27.246961805555554 1.3983289930555585  30.21484375 4.194986979166665  C 33.18272569444445 6.9916449652777715  34.666666666666664 10.357204861111107  34.666666666666664 14.291666666666664  C 34.666666666666664 14.844618055555554  34.45225694444444 15.323133680555554  34.0234375 15.727213541666664  C 33.59461805555556 16.13129340277777  33.08680555555556 16.333333333333336  32.5 16.333333333333336  L 30.333333333333332 16.333333333333336  C 29.74652777777778 16.333333333333336  29.238715277777782 16.13129340277777  28.809895833333332 15.727213541666664  C 28.38107638888889 15.323133680555554  28.166666666666668 14.844618055555554  28.166666666666668 14.291666666666664  C 28.166666666666668 12.037326388888888  27.3203125 10.112630208333336  25.627604166666668 8.517578125  C 23.934895833333332 6.922526041666665  21.892361111111114 6.125  19.5 6.125  C 17.10763888888889 6.125  15.065104166666666 6.922526041666665  13.372395833333332 8.517578125  C 11.6796875 10.112630208333336  10.833333333333334 12.037326388888888  10.833333333333334 14.291666666666664  L 10.833333333333334 24  Z " fill-rule="nonzero" fill="#000000" stroke="none" transform="matrix(1 0 0 1 469 495 )" />
  </g>
</svg>