<?xml version="1.0" encoding="utf-8"?>
<svg version="1.1" xmlns:xlink="http://www.w3.org/1999/xlink" width="38px" height="48px" xmlns="http://www.w3.org/2000/svg">
  <g transform="matrix(1 0 0 1 -470 -387 )">
    <path d="M 37.74765625 34.703125  C 37.91588541666667 36.276041666666664  38 37.947916666666664  38 39.71875  C 38 41.989583333333336  37.38151041666667 43.9375  36.14453125 45.5625  C 34.907552083333336 47.1875  33.41822916666667 48  31.6765625 48  L 6.3234375 48  C 4.581770833333334 48  3.092447916666667 47.1875  1.8554687500000002 45.5625  C 0.6184895833333335 43.9375  0 41.989583333333336  0 39.71875  C 0 37.947916666666664  0.08411458333333353 36.276041666666664  0.2523437500000002 34.703125  C 0.4205729166666669 33.13020833333333  0.7322916666666668 31.546875  1.1875000000000002 29.953125  C 1.6427083333333339 28.359375  2.2216145833333334 26.994791666666668  2.92421875 25.859375000000004  C 3.6268229166666672 24.72395833333333  4.55703125 23.796875  5.71484375 23.078125  C 6.8726562499999995 22.359375  8.203645833333335 22  9.707812500000001 22  C 12.300520833333334 24.666666666666664  15.397916666666669 26.000000000000004  19 26.000000000000004  C 22.60208333333334 26.000000000000004  25.69947916666667 24.666666666666664  28.2921875 22  C 29.796354166666667 22  31.127343749999998 22.359375  32.28515625 23.078125  C 33.44296875 23.796875  34.37317708333334 24.72395833333333  35.07578125 25.859375000000004  C 35.77838541666667 26.994791666666668  36.35729166666667 28.359375  36.8125 29.953125  C 37.26770833333334 31.546875  37.579427083333336 33.13020833333333  37.74765625 34.703125  Z M 27.060156250000002 3.515625  C 29.286718750000002 5.859375  30.400000000000002 8.687500000000002  30.400000000000002 12  C 30.400000000000002 15.312499999999998  29.286718750000002 18.140625  27.060156250000002 20.484375  C 24.833593750000002 22.828125  22.146874999999998 24  19 24  C 15.853125 24  13.16640625 22.828125  10.93984375 20.484375  C 8.71328125 18.140625  7.6000000000000005 15.312499999999998  7.6000000000000005 12  C 7.6000000000000005 8.687500000000002  8.71328125 5.859375  10.93984375 3.515625  C 13.16640625 1.171875  15.853125 0  19 0  C 22.146874999999998 0  24.833593750000002 1.171875  27.060156250000002 3.515625  Z " fill-rule="nonzero" fill="#1890ff" stroke="none" transform="matrix(1 0 0 1 470 387 )" />
  </g>
</svg>